# xmcd
#
# Track frame offsets:
#	150
#	20492
#	31406
#	45022
#	59396
#	76188
#	85656
#	104507
#	120660
#	133361
#	146930
#	158710
#	182214
#	200990
#	220871
#	234922
#	253069
#	269663
#	282601
#	294344
#	308013
#
# Disc length: 4354 seconds
#
# Revision: 0
# Processed by: cddbd v1.5.2PL0 Copyright (c) Steve Scherf et al.
# Submitted via: EasyCDDAExtractor 12.0.1.1
#
DISCID=3b110015
DTITLE=Steve Earle - The Absolute The Best Vol.1
DYEAR=2004
DGENRE=Country
TTITLE0=Bible And A Gun
TTITLE1=Dirty Old Town
TTITLE2=High Fashion Queen
TTITLE3=Regular Guy
TTITLE4=Poison lovers
TTITLE5=American boy
TTITLE6=Even When I'm Blue
TTITLE7=Poison Lovers
TTITLE8=Shadowland
TTITLE9=I Feel Alright
TTITLE10=Sweet Little '66
TTITLE11=Taneytown
TTITLE12=If You Fall
TTITLE13=The Week of Living Dangerously
TTITLE14=Continental Trailways Blues
TTITLE15=Ashes To Ashes
TTITLE16=John Walker's Blues
TTITLE17=Shadowland
TTITLE18=Guitar Town
TTITLE19=The Devil's Right Hand
TTITLE20=The Rain Came Down
EXTD=
EXTT0=
EXTT1=
EXTT2=
EXTT3=
EXTT4=
EXTT5=
EXTT6=
EXTT7=
EXTT8=
EXTT9=
EXTT10=
EXTT11=
EXTT12=
EXTT13=
EXTT14=
EXTT15=
EXTT16=
EXTT17=
EXTT18=
EXTT19=
EXTT20=
PLAYORDER=
